<svg xmlns="http://www.w3.org/2000/svg" xmlns:xlink="http://www.w3.org/1999/xlink" width="500" zoomAndPan="magnify" viewBox="0 0 375 374.999991" height="500" preserveAspectRatio="xMidYMid meet" version="1.0"><defs><clipPath id="7a9fd158a2"><path d="M 12 1 L 341 1 L 341 372 L 12 372 Z M 12 1 " clip-rule="nonzero"/></clipPath><clipPath id="111c548e72"><path d="M -36.960938 42.164062 L 219.082031 -62.867188 L 392.996094 361.097656 L 136.953125 466.128906 Z M -36.960938 42.164062 " clip-rule="nonzero"/></clipPath><clipPath id="38458988d2"><path d="M -37.230469 41.503906 L 219.507812 -63.8125 L 393.707031 360.847656 L 136.96875 466.164062 Z M -37.230469 41.503906 " clip-rule="nonzero"/></clipPath><clipPath id="f34ea1e198"><path d="M -259.035156 -499.210938 L 727.671875 -903.964844 L 1151.214844 128.539062 L 164.503906 533.292969 Z M -259.035156 -499.210938 " clip-rule="nonzero"/></clipPath><clipPath id="ecfca2de4f"><path d="M 79 186 L 341 186 L 341 372 L 79 372 Z M 79 186 " clip-rule="nonzero"/></clipPath><clipPath id="29186eaed0"><path d="M -36.960938 42.164062 L 219.082031 -62.867188 L 392.996094 361.097656 L 136.953125 466.128906 Z M -36.960938 42.164062 " clip-rule="nonzero"/></clipPath><clipPath id="81edc6c5b3"><path d="M -37.230469 41.503906 L 219.507812 -63.8125 L 393.707031 360.847656 L 136.96875 466.164062 Z M -37.230469 41.503906 " clip-rule="nonzero"/></clipPath><clipPath id="7be8083284"><path d="M -259.035156 -499.210938 L 727.671875 -903.964844 L 1151.214844 128.539062 L 164.503906 533.292969 Z M -259.035156 -499.210938 " clip-rule="nonzero"/></clipPath></defs><g clip-path="url(#7a9fd158a2)"><g clip-path="url(#111c548e72)"><g clip-path="url(#38458988d2)"><g clip-path="url(#f34ea1e198)"><path fill="#62dbfb" d="M 73.902344 266.175781 C 113.886719 317.832031 167.800781 352.355469 226.269531 368.609375 C 290.605469 386.480469 351.402344 330.605469 338.71875 265.035156 C 332.1875 231.25 307.683594 203.226562 274.582031 193.886719 C 252.613281 187.667969 232.367188 174.664062 217.363281 155.230469 C 202.324219 135.804688 194.789062 112.976562 194.292969 90.152344 C 193.558594 56.660156 174.914062 26.121094 144.636719 11.707031 L 142.6875 10.785156 C 81.855469 -18.191406 11.523438 27.027344 12.992188 94.375 C 14.308594 154.570312 34.222656 214.902344 73.902344 266.175781 Z M 73.902344 266.175781 " fill-opacity="1" fill-rule="nonzero"/></g></g></g></g><g clip-path="url(#ecfca2de4f)"><g clip-path="url(#29186eaed0)"><g clip-path="url(#81edc6c5b3)"><g clip-path="url(#7be8083284)"><path fill="#01d0fb" d="M 274.582031 193.886719 C 267.792969 191.984375 261.207031 189.414062 254.878906 186.226562 C 255.984375 189.726562 256.933594 193.289062 257.652344 196.914062 C 270.300781 262.496094 209.539062 318.355469 145.171875 300.496094 C 122.464844 294.179688 100.453125 285.085938 79.679688 273.289062 C 119 321.007812 170.539062 353.136719 226.269531 368.609375 C 290.605469 386.480469 351.402344 330.605469 338.71875 265.035156 C 332.1875 231.25 307.683594 203.226562 274.582031 193.886719 Z M 274.582031 193.886719 " fill-opacity="1" fill-rule="nonzero"/></g></g></g></g></svg>